<svg width="1920" height="700" viewBox="0 0 1920 700" fill="none" xmlns="http://www.w3.org/2000/svg">
<g clip-path="url(#clip0_150_170)">
<rect width="1920" height="700" fill="#22223B"/>
<path d="M1953.28 236.5C1961.05 673.127 23.7793 -184 -16.2217 236.5C-56.2228 657 -16.2217 131 -16.2217 79.75V-77L1949.86 -43.059C1950.22 -104.884 1953.28 -43 1953.28 -43L1949.86 -43.059C1949.65 -6.36938 1950.39 73.8875 1953.28 236.5Z" fill="#6C63FF"/>
<path d="M1953.28 299.5C1961.05 736.127 23.7793 -121 -16.2217 299.5C-56.2228 720 -16.2217 194 -16.2217 142.75V-14L1949.86 19.941C1950.22 -41.8838 1953.28 20 1953.28 20L1949.86 19.941C1949.65 56.6306 1950.39 136.887 1953.28 299.5Z" fill="#6C63FF" fill-opacity="0.75"/>
<path d="M1953.28 358.5C1961.05 795.127 23.7793 -62.0002 -16.2217 358.5C-56.2228 779 -16.2217 253 -16.2217 201.75V45L1949.86 78.941C1950.22 17.1162 1953.28 79 1953.28 79L1949.86 78.941C1949.65 115.631 1950.39 195.887 1953.28 358.5Z" fill="#6C63FF" fill-opacity="0.65"/>
<path d="M1965.28 413.5C1973.05 850.127 35.7793 -7.00024 -4.22175 413.5C-44.2228 834 -4.22175 308 -4.22175 256.75V100L1961.86 133.941C1962.22 72.1162 1965.28 134 1965.28 134L1961.86 133.941C1961.65 170.631 1962.39 250.887 1965.28 413.5Z" fill="#6C63FF" fill-opacity="0.55"/>
<path d="M1964.98 478.765C1972.74 984.006 35.7705 -7.81487 -4.22445 478.765C-44.2194 965.345 -4.22445 356.686 -4.22445 297.383V116L1961.56 155.275C1961.92 83.7344 1964.98 155.343 1964.98 155.343L1961.56 155.275C1961.35 197.73 1962.08 290.599 1964.98 478.765Z" fill="#6C63FF" fill-opacity="0.45"/>
<path d="M1941.98 610.51C1949.74 1321.52 12.7705 -74.2413 -27.2245 610.51C-67.2194 1295.26 -27.2245 438.711 -27.2245 355.255V100L1938.56 155.27C1938.92 54.5935 1941.98 155.366 1941.98 155.366L1938.56 155.27C1938.35 215.016 1939.08 345.708 1941.98 610.51Z" fill="#6C63FF" fill-opacity="0.35"/>
<path d="M1932.98 758.254C1940.74 1675.04 3.77053 -124.668 -36.2245 758.254C-76.2194 1641.18 -36.2245 536.736 -36.2245 429.127V100L1929.56 171.266C1929.92 41.4527 1932.98 171.39 1932.98 171.39L1929.56 171.266C1929.35 248.303 1930.08 416.818 1932.98 758.254Z" fill="#6C63FF" fill-opacity="0.33"/>
<path d="M1920.98 976.254C1928.74 1893.04 -8.22947 93.3323 -48.2245 976.254C-88.2194 1859.18 -48.2245 754.736 -48.2245 647.127C-48.2245 539.518 -16 -14 -16 -14H1953C1953 -14 1913.21 59.471 1920.98 976.254Z" fill="#6C63FF" fill-opacity="0.3"/>
</g>
<defs>
<clipPath id="clip0_150_170">
<rect width="1920" height="700" fill="white"/>
</clipPath>
</defs>
</svg>
